<?xml version="1.0" encoding="utf-8"?>
<!-- Svg Vector Icons : http://www.onlinewebfonts.com/icon -->
<!DOCTYPE svg PUBLIC "-//W3C//DTD SVG 1.1//EN" "http://www.w3.org/Graphics/SVG/1.1/DTD/svg11.dtd">
<svg version="1.1" xmlns="http://www.w3.org/2000/svg" xmlns:xlink="http://www.w3.org/1999/xlink" x="0px" y="0px" viewBox="0 0 256 256" enable-background="new 0 0 256 256" xml:space="preserve">
<metadata> Svg Vector Icons : http://www.onlinewebfonts.com/icon </metadata>
<g><g><path fill="#000000" d="M192.7,193.4l41.3,41.3L222.7,246l-43.3-43.3c-15.7,9.5-34,15-53.6,15C68.5,217.7,22,171.2,22,113.9C22,56.5,68.5,10,125.8,10c57.4,0,103.9,46.5,103.9,103.9C229.7,145.8,215.3,174.3,192.7,193.4z M125.8,26c-48.5,0-87.9,39.3-87.9,87.9c0,48.5,39.3,87.9,87.9,87.9s87.9-39.3,87.9-87.9C213.7,65.3,174.4,26,125.8,26z"/></g></g>
</svg>